M48
; DRILL file {KiCad 8.0.6} date 2024-10-20T12:02:16+0200
; FORMAT={-:-/ absolute / metric / decimal}
; #@! TF.CreationDate,2024-10-20T12:02:16+02:00
; #@! TF.GenerationSoftware,Kicad,Pcbnew,8.0.6
; #@! TF.FileFunction,Plated,1,2,PTH
FMAT,2
METRIC
; #@! TA.AperFunction,Plated,PTH,ViaDrill
T1C0.300
; #@! TA.AperFunction,Plated,PTH,ComponentDrill
T2C0.400
; #@! TA.AperFunction,Plated,PTH,ComponentDrill
T3C1.000
; #@! TA.AperFunction,Plated,PTH,ComponentDrill
T4C2.200
%
G90
G05
T1
X116.078Y-77.978
X121.412Y-100.584
X127.0Y-94.234
X137.414Y-77.47
X137.922Y-90.17
X137.922Y-98.298
T2
X93.449Y-67.715
X93.449Y-125.833
X93.933Y-66.548
X93.933Y-68.881
X93.933Y-124.667
X93.933Y-127.0
X95.099Y-66.065
X95.099Y-69.365
X95.099Y-124.183
X95.099Y-127.483
X96.266Y-66.548
X96.266Y-68.881
X96.266Y-124.667
X96.266Y-127.0
X96.749Y-67.715
X96.749Y-125.833
X136.4Y-68.072
X136.4Y-125.833
X136.883Y-66.905
X136.883Y-69.239
X136.883Y-124.667
X136.883Y-127.0
X138.05Y-66.422
X138.05Y-69.722
X138.05Y-124.183
X138.05Y-127.483
X139.217Y-66.905
X139.217Y-69.239
X139.217Y-124.667
X139.217Y-127.0
X139.7Y-68.072
X139.7Y-125.833
T3
X96.266Y-78.74
X96.266Y-81.28
X96.266Y-83.82
X96.266Y-86.36
X96.266Y-88.9
X96.266Y-91.44
X96.266Y-93.98
X96.266Y-96.52
X96.266Y-99.06
X96.266Y-101.6
X96.266Y-104.14
X96.266Y-106.68
X96.266Y-109.22
X96.266Y-111.76
X96.266Y-114.3
X102.399Y-68.831
X104.899Y-68.831
X111.506Y-78.74
X111.506Y-81.28
X111.506Y-83.82
X111.506Y-86.36
X111.506Y-88.9
X111.506Y-91.44
X111.506Y-93.98
X111.506Y-96.52
X111.506Y-99.06
X111.506Y-101.6
X111.506Y-104.14
X111.506Y-106.68
X111.506Y-109.22
X111.506Y-111.76
X111.506Y-114.3
X117.602Y-104.394
X117.602Y-106.934
X117.602Y-109.474
X117.602Y-112.014
X117.602Y-114.554
X117.602Y-117.094
X117.602Y-119.634
T4
X95.099Y-67.715
X95.099Y-125.833
X138.05Y-68.072
X138.05Y-125.833
M30
