G04 #@! TF.GenerationSoftware,KiCad,Pcbnew,8.0.6*
G04 #@! TF.CreationDate,2024-10-20T12:02:02+02:00*
G04 #@! TF.ProjectId,foxy,666f7879-2e6b-4696-9361-645f70636258,rev?*
G04 #@! TF.SameCoordinates,Original*
G04 #@! TF.FileFunction,Soldermask,Bot*
G04 #@! TF.FilePolarity,Negative*
%FSLAX46Y46*%
G04 Gerber Fmt 4.6, Leading zero omitted, Abs format (unit mm)*
G04 Created by KiCad (PCBNEW 8.0.6) date 2024-10-20 12:02:02*
%MOMM*%
%LPD*%
G01*
G04 APERTURE LIST*
G04 Aperture macros list*
%AMRoundRect*
0 Rectangle with rounded corners*
0 $1 Rounding radius*
0 $2 $3 $4 $5 $6 $7 $8 $9 X,Y pos of 4 corners*
0 Add a 4 corners polygon primitive as box body*
4,1,4,$2,$3,$4,$5,$6,$7,$8,$9,$2,$3,0*
0 Add four circle primitives for the rounded corners*
1,1,$1+$1,$2,$3*
1,1,$1+$1,$4,$5*
1,1,$1+$1,$6,$7*
1,1,$1+$1,$8,$9*
0 Add four rect primitives between the rounded corners*
20,1,$1+$1,$2,$3,$4,$5,0*
20,1,$1+$1,$4,$5,$6,$7,0*
20,1,$1+$1,$6,$7,$8,$9,0*
20,1,$1+$1,$8,$9,$2,$3,0*%
G04 Aperture macros list end*
%ADD10C,0.700000*%
%ADD11C,4.400000*%
%ADD12RoundRect,0.250000X0.600000X0.750000X-0.600000X0.750000X-0.600000X-0.750000X0.600000X-0.750000X0*%
%ADD13O,1.700000X2.000000*%
%ADD14R,1.700000X1.700000*%
%ADD15O,1.700000X1.700000*%
%ADD16R,1.600000X1.600000*%
%ADD17O,1.600000X1.600000*%
%ADD18R,4.000000X1.500000*%
%ADD19RoundRect,0.250000X-0.337500X-0.475000X0.337500X-0.475000X0.337500X0.475000X-0.337500X0.475000X0*%
G04 APERTURE END LIST*
D10*
X136400000Y-125833274D03*
X136883274Y-124666548D03*
X136883274Y-127000000D03*
X138050000Y-124183274D03*
D11*
X138050000Y-125833274D03*
D10*
X138050000Y-127483274D03*
X139216726Y-124666548D03*
X139216726Y-127000000D03*
X139700000Y-125833274D03*
D12*
X104899000Y-68831000D03*
D13*
X102399000Y-68831000D03*
D14*
X117602000Y-119634000D03*
D15*
X117602000Y-117094000D03*
X117602000Y-114554000D03*
X117602000Y-112014000D03*
X117602000Y-109474000D03*
X117602000Y-106934000D03*
X117602000Y-104394000D03*
D10*
X93449274Y-125833274D03*
X93932548Y-124666548D03*
X93932548Y-127000000D03*
X95099274Y-124183274D03*
D11*
X95099274Y-125833274D03*
D10*
X95099274Y-127483274D03*
X96266000Y-124666548D03*
X96266000Y-127000000D03*
X96749274Y-125833274D03*
X93449274Y-67714726D03*
X93932548Y-66548000D03*
X93932548Y-68881452D03*
X95099274Y-66064726D03*
D11*
X95099274Y-67714726D03*
D10*
X95099274Y-69364726D03*
X96266000Y-66548000D03*
X96266000Y-68881452D03*
X96749274Y-67714726D03*
X136400000Y-68072000D03*
X136883274Y-66905274D03*
X136883274Y-69238726D03*
X138050000Y-66422000D03*
D11*
X138050000Y-68072000D03*
D10*
X138050000Y-69722000D03*
X139216726Y-66905274D03*
X139216726Y-69238726D03*
X139700000Y-68072000D03*
D16*
X96266000Y-78740000D03*
D17*
X96266000Y-81280000D03*
X96266000Y-83820000D03*
X96266000Y-86360000D03*
X96266000Y-88900000D03*
X96266000Y-91440000D03*
X96266000Y-93980000D03*
X96266000Y-96520000D03*
X96266000Y-99060000D03*
X96266000Y-101600000D03*
X96266000Y-104140000D03*
X96266000Y-106680000D03*
X96266000Y-109220000D03*
X96266000Y-111760000D03*
X96266000Y-114300000D03*
X111506000Y-114300000D03*
X111506000Y-111760000D03*
X111506000Y-109220000D03*
X111506000Y-106680000D03*
X111506000Y-104140000D03*
X111506000Y-101600000D03*
X111506000Y-99060000D03*
X111506000Y-96520000D03*
X111506000Y-93980000D03*
X111506000Y-91440000D03*
X111506000Y-88900000D03*
X111506000Y-86360000D03*
X111506000Y-83820000D03*
X111506000Y-81280000D03*
X111506000Y-78740000D03*
D18*
X137922000Y-91694000D03*
X137922000Y-96774000D03*
D19*
X102311200Y-72999600D03*
X104386200Y-72999600D03*
M02*
