%TF.GenerationSoftware,KiCad,Pcbnew,8.0.6*%
%TF.CreationDate,2024-10-20T12:02:17+02:00*%
%TF.ProjectId,foxy,666f7879-2e6b-4696-9361-645f70636258,rev?*%
%TF.SameCoordinates,Original*%
%TF.FileFunction,Drillmap*%
%TF.FilePolarity,Positive*%
%FSLAX45Y45*%
G04 Gerber Fmt 4.5, Leading zero omitted, Abs format (unit mm)*
G04 Created by KiCad (PCBNEW 8.0.6) date 2024-10-20 12:02:17*
%MOMM*%
%LPD*%
G01*
G04 APERTURE LIST*
%ADD10C,0.050000*%
%ADD11C,0.200000*%
G04 APERTURE END LIST*
D10*
X9144000Y-6477000D02*
X14144000Y-6477000D01*
X14144000Y-12977000D01*
X9144000Y-12977000D01*
X9144000Y-6477000D01*
D11*
X9402277Y-13290984D02*
X9402277Y-13090984D01*
X9402277Y-13090984D02*
X9449896Y-13090984D01*
X9449896Y-13090984D02*
X9478467Y-13100508D01*
X9478467Y-13100508D02*
X9497515Y-13119555D01*
X9497515Y-13119555D02*
X9507039Y-13138603D01*
X9507039Y-13138603D02*
X9516563Y-13176698D01*
X9516563Y-13176698D02*
X9516563Y-13205269D01*
X9516563Y-13205269D02*
X9507039Y-13243365D01*
X9507039Y-13243365D02*
X9497515Y-13262412D01*
X9497515Y-13262412D02*
X9478467Y-13281460D01*
X9478467Y-13281460D02*
X9449896Y-13290984D01*
X9449896Y-13290984D02*
X9402277Y-13290984D01*
X9602277Y-13290984D02*
X9602277Y-13157650D01*
X9602277Y-13195746D02*
X9611801Y-13176698D01*
X9611801Y-13176698D02*
X9621324Y-13167174D01*
X9621324Y-13167174D02*
X9640372Y-13157650D01*
X9640372Y-13157650D02*
X9659420Y-13157650D01*
X9726086Y-13290984D02*
X9726086Y-13157650D01*
X9726086Y-13090984D02*
X9716563Y-13100508D01*
X9716563Y-13100508D02*
X9726086Y-13110031D01*
X9726086Y-13110031D02*
X9735610Y-13100508D01*
X9735610Y-13100508D02*
X9726086Y-13090984D01*
X9726086Y-13090984D02*
X9726086Y-13110031D01*
X9849896Y-13290984D02*
X9830848Y-13281460D01*
X9830848Y-13281460D02*
X9821324Y-13262412D01*
X9821324Y-13262412D02*
X9821324Y-13090984D01*
X9954658Y-13290984D02*
X9935610Y-13281460D01*
X9935610Y-13281460D02*
X9926086Y-13262412D01*
X9926086Y-13262412D02*
X9926086Y-13090984D01*
X10183229Y-13290984D02*
X10183229Y-13090984D01*
X10183229Y-13090984D02*
X10249896Y-13233841D01*
X10249896Y-13233841D02*
X10316563Y-13090984D01*
X10316563Y-13090984D02*
X10316563Y-13290984D01*
X10497515Y-13290984D02*
X10497515Y-13186222D01*
X10497515Y-13186222D02*
X10487991Y-13167174D01*
X10487991Y-13167174D02*
X10468944Y-13157650D01*
X10468944Y-13157650D02*
X10430848Y-13157650D01*
X10430848Y-13157650D02*
X10411801Y-13167174D01*
X10497515Y-13281460D02*
X10478467Y-13290984D01*
X10478467Y-13290984D02*
X10430848Y-13290984D01*
X10430848Y-13290984D02*
X10411801Y-13281460D01*
X10411801Y-13281460D02*
X10402277Y-13262412D01*
X10402277Y-13262412D02*
X10402277Y-13243365D01*
X10402277Y-13243365D02*
X10411801Y-13224317D01*
X10411801Y-13224317D02*
X10430848Y-13214793D01*
X10430848Y-13214793D02*
X10478467Y-13214793D01*
X10478467Y-13214793D02*
X10497515Y-13205269D01*
X10592753Y-13157650D02*
X10592753Y-13357650D01*
X10592753Y-13167174D02*
X10611801Y-13157650D01*
X10611801Y-13157650D02*
X10649896Y-13157650D01*
X10649896Y-13157650D02*
X10668944Y-13167174D01*
X10668944Y-13167174D02*
X10678467Y-13176698D01*
X10678467Y-13176698D02*
X10687991Y-13195746D01*
X10687991Y-13195746D02*
X10687991Y-13252888D01*
X10687991Y-13252888D02*
X10678467Y-13271936D01*
X10678467Y-13271936D02*
X10668944Y-13281460D01*
X10668944Y-13281460D02*
X10649896Y-13290984D01*
X10649896Y-13290984D02*
X10611801Y-13290984D01*
X10611801Y-13290984D02*
X10592753Y-13281460D01*
X10773705Y-13271936D02*
X10783229Y-13281460D01*
X10783229Y-13281460D02*
X10773705Y-13290984D01*
X10773705Y-13290984D02*
X10764182Y-13281460D01*
X10764182Y-13281460D02*
X10773705Y-13271936D01*
X10773705Y-13271936D02*
X10773705Y-13290984D01*
X10773705Y-13167174D02*
X10783229Y-13176698D01*
X10783229Y-13176698D02*
X10773705Y-13186222D01*
X10773705Y-13186222D02*
X10764182Y-13176698D01*
X10764182Y-13176698D02*
X10773705Y-13167174D01*
X10773705Y-13167174D02*
X10773705Y-13186222D01*
M02*
